# xmcd
#
# Track frame offsets: 
#        182
#        15827
#        32387
#        52780
#        71700
#        90050
#        106677
#        128565
#        143887
#        162245
#        184847
#        203945
#        225195
#        243812
#        258877
#        279665
#
# Disc length: 4019 seconds
#
# Revision: 1
# Processed by: cddbd v1.5.1PL0 Copyright (c) Steve Scherf et al.
# Submitted via: ExactAudioCopy v0.95a5
#
DISCID=b70fb110
DTITLE=Russel B. - Synthesizer Greatest Hits
DYEAR=1900
DGENRE=Electronic
TTITLE0=Vangelis - Dervish D.
TTITLE1=Hammer - Tubbs and Valerie
TTITLE2=Ruseler - Mountain Dust
TTITLE3=Jarre - Zoolokologie
TTITLE4=Vangelis - Hymne
TTITLE5=Yeskim - Buster P.
TTITLE6=Vangelis - I Hear You Now
TTITLE7=Zimmer - Theme From Rainman
TTITLE8=Stewart - Lily Was Here
TTITLE9=Vosges - Brothers Boniecki
TTITLE10=Mecano - Hijo De Da Luna
TTITLE11=Vangelis - First Approach
TTITLE12=Collins - Another Day In Paradise
TTITLE13=Jakobin - Tattoo
TTITLE14=Gessle - It Must Have Been Love
TTITLE15=Vangelis - Antarctica
EXTD=
EXTT0=
EXTT1=
EXTT2=
EXTT3=
EXTT4=
EXTT5=
EXTT6=
EXTT7=
EXTT8=
EXTT9=
EXTT10=
EXTT11=
EXTT12=
EXTT13=
EXTT14=
EXTT15=
PLAYORDER=
